<svg width="44" height="35" viewBox="0 0 44 35" fill="none" xmlns="http://www.w3.org/2000/svg">
<path d="M37.0845 1.20276C37.8379 0.459567 38.8617 0.0380563 39.9322 0.0303505C41.0027 0.0226446 42.0328 0.42937 42.7974 1.16164C43.5619 1.89391 43.9988 2.89217 44.0125 3.93827C44.0262 4.98437 43.6156 5.99324 42.8705 6.74439L21.3105 33.0846C20.9401 33.4743 20.4931 33.7871 19.9963 34.0042C19.4995 34.2214 18.963 34.3385 18.4188 34.3485C17.8747 34.3586 17.334 34.2613 16.8292 34.0626C16.3243 33.8639 15.8656 33.5679 15.4805 33.1921L1.18596 19.2278C0.426344 18.4851 -0.000257746 17.4779 1.16832e-07 16.4278C0.000257979 15.3778 0.427354 14.3708 1.18733 13.6284C1.94731 12.8861 2.97792 12.4692 4.05243 12.4694C5.12694 12.4697 6.15734 12.8871 6.91696 13.6298L18.2222 24.6808L36.9772 1.32639C37.0113 1.28389 37.048 1.2435 37.0872 1.20545L37.0845 1.20276Z" fill="#38CB89"/>
</svg>
