<svg width="12" height="13" viewBox="0 0 12 13" fill="none" xmlns="http://www.w3.org/2000/svg">
<path d="M8.08149 0.549928C8.33622 0.54933 8.53764 0.747231 8.53823 1.0111L8.53882 1.46087C10.1916 1.59041 11.2834 2.71664 11.2852 4.44378L11.2917 9.49924C11.2941 11.3823 10.111 12.5409 8.21478 12.5439L3.58283 12.5499C1.69842 12.5523 0.500593 11.3661 0.498224 9.47766L0.491703 4.48156C0.489338 2.74303 1.54262 1.61979 3.1954 1.46807L3.19481 1.01829C3.19422 0.754427 3.38971 0.555926 3.65037 0.555926C3.91102 0.555327 4.10651 0.753228 4.1071 1.0171L4.1077 1.43688L7.62653 1.43209L7.62594 1.0123C7.62535 0.74843 7.82084 0.550529 8.08149 0.549928ZM8.32319 9.06506H8.31726C8.04476 9.07166 7.82617 9.30014 7.83209 9.57601C7.83268 9.85187 8.05246 10.0792 8.32497 10.0852C8.6028 10.0846 8.82791 9.85607 8.82732 9.57421C8.82732 9.29235 8.60161 9.06506 8.32319 9.06506ZM3.44184 9.06566C3.16934 9.07766 2.95608 9.30614 2.95667 9.582C2.96911 9.85786 3.19422 10.0738 3.46672 10.0612C3.73389 10.0492 3.94656 9.82068 3.93412 9.54482C3.9282 9.27496 3.70842 9.06506 3.44184 9.06566ZM5.88252 9.06266C5.61001 9.07526 5.39734 9.30314 5.39734 9.579C5.40978 9.85487 5.63489 10.0702 5.9074 10.0582C6.17397 10.0456 6.38724 9.81768 6.3748 9.54122C6.36887 9.27196 6.14909 9.06206 5.88252 9.06266ZM3.43888 6.90674C3.16638 6.91874 2.95371 7.14722 2.9543 7.42308C2.96615 7.69895 3.19185 7.91484 3.46435 7.90224C3.73093 7.89025 3.9436 7.66176 3.93116 7.3859C3.92524 7.11604 3.70605 6.90614 3.43888 6.90674ZM5.88015 6.88575C5.60764 6.89775 5.39438 7.12623 5.39497 7.4021C5.40682 7.67796 5.63252 7.89325 5.90503 7.88125C6.1716 7.86866 6.38427 7.64078 6.37243 7.36491C6.36591 7.09505 6.14672 6.88515 5.88015 6.88575ZM8.32082 6.88875C8.04832 6.89475 7.83505 7.11664 7.83564 7.3925V7.3991C7.84157 7.67496 8.06668 7.88425 8.33978 7.87826C8.60635 7.87166 8.81902 7.64317 8.8131 7.36731C8.80066 7.10345 8.58681 6.88815 8.32082 6.88875ZM7.62771 2.35562L4.10888 2.36042L4.10947 2.84558C4.10947 3.10405 3.91457 3.30795 3.65392 3.30795C3.39327 3.30855 3.19718 3.10525 3.19718 2.84678L3.19659 2.38501C2.04142 2.50075 1.40222 3.17961 1.40399 4.48036L1.40459 4.66687L10.3735 4.65487V4.44498C10.348 3.15562 9.7011 2.47916 8.54001 2.37841L8.5406 2.84018C8.5406 3.09805 8.33978 3.30255 8.08505 3.30255C7.82439 3.30315 7.62831 3.09925 7.62831 2.84138L7.62771 2.35562Z" fill="#333333"/>
</svg>
