<svg width="274" height="317" viewBox="0 0 274 317" fill="none" xmlns="http://www.w3.org/2000/svg">
<path d="M157.87 204.933V212.504H138.993V204.933H157.87Z" fill="#B600A0"/>
<path d="M32.716 164.332C32.4362 164.332 32.1779 164.16 31.9842 163.837C31.3384 162.719 30.4559 158.267 29.2936 150.265C24.4074 149.125 21.6738 148.265 20.9635 147.62C20.6837 147.362 20.533 146.931 20.6191 146.523C20.7482 145.835 20.8774 145.039 29.0998 142.909C31.4891 127.574 32.4147 127.316 32.9743 127.165C33.0389 127.144 33.1034 127.144 33.1465 127.144C33.4263 127.144 33.6846 127.316 33.8783 127.638C34.5671 128.821 35.5357 133.983 36.8057 142.931C44.9851 145.06 45.1143 145.835 45.2434 146.544C45.308 146.953 45.1788 147.362 44.899 147.641C44.1887 148.287 41.4335 149.168 36.4828 150.308C34.2873 163.966 33.4694 164.181 32.8882 164.353C32.8236 164.332 32.759 164.332 32.716 164.332Z" fill="#FFE700"/>
<path d="M210.661 190.314C210.446 190.314 210.231 190.207 210.08 189.992C209.585 189.282 208.896 186.486 207.97 181.41C204.139 180.7 202.008 180.141 201.448 179.732C201.233 179.56 201.126 179.302 201.169 179.044C201.255 178.614 201.362 178.097 207.82 176.764C209.692 167.063 210.424 166.913 210.855 166.805C210.898 166.805 210.941 166.784 211.005 166.784C211.221 166.784 211.436 166.891 211.587 167.106C212.125 167.859 212.9 171.107 213.89 176.764C220.304 178.097 220.412 178.614 220.498 179.044C220.562 179.302 220.455 179.56 220.218 179.732C219.658 180.141 217.506 180.7 213.631 181.41C211.91 190.035 211.264 190.185 210.812 190.271C210.747 190.293 210.704 190.314 210.661 190.314Z" fill="#B600A0"/>
<path d="M145.57 42.1198C145.42 42.1198 145.29 42.0553 145.204 41.9262C144.881 41.4745 144.429 39.6463 143.848 36.377C141.373 35.9038 139.995 35.5597 139.629 35.3015C139.479 35.194 139.414 35.0219 139.457 34.8499C139.522 34.5703 139.586 34.2476 143.762 33.3658C144.968 27.1068 145.441 26.9992 145.721 26.9347C145.742 26.9347 145.785 26.9347 145.807 26.9347C145.958 26.9347 146.087 26.9992 146.173 27.1283C146.517 27.623 147.012 29.7093 147.658 33.3658C151.791 34.2261 151.877 34.5487 151.92 34.8284C151.963 35.0004 151.898 35.1725 151.748 35.28C151.382 35.5381 150.004 35.9038 147.486 36.377C146.367 41.9477 145.958 42.0337 145.656 42.0983C145.635 42.0983 145.592 42.1198 145.57 42.1198Z" fill="#00DBC5"/>
<path d="M30.3395 218.036L35.697 212.683L49.045 226.021L43.6876 231.375L30.3395 218.036Z" fill="#00DBC5"/>
<path d="M255.268 62.3668L250.538 66.6318L239.925 54.8793L244.655 50.6144L255.268 62.3668Z" fill="#FFE700"/>
<path d="M249.898 286.497L253.354 291.846L240.043 300.431L236.588 295.082L249.898 286.497Z" fill="#FFE700"/>
<path d="M8.00024 280.412L13.5178 283.596L5.5967 297.305L0.0791331 294.121L8.00024 280.412Z" fill="#FFE700"/>
<path d="M25.5165 78.0217L20.159 83.3752L6.81097 70.0371L12.1685 64.6837L25.5165 78.0217Z" fill="#B600A0"/>
<path d="M65.35 278.484L69.4588 284.846L53.5982 295.075L49.4893 288.714L65.35 278.484Z" fill="#B600A0"/>
<path d="M269.812 216.141L273.921 222.503L258.06 232.732L253.951 226.371L269.812 216.141Z" fill="#B600A0"/>
<path d="M251.476 161.063L246.662 155.217L261.239 143.231L266.053 149.077L251.476 161.063Z" fill="#00DBC5"/>
<path d="M78.076 93.3125L82.0557 97.7196L71.0935 107.604L67.1137 103.197L78.076 93.3125Z" fill="#F73200"/>
<path d="M136.832 293.339L139.029 298.855L125.31 304.311L123.113 298.796L136.832 293.339Z" fill="#F73200"/>
<path d="M210.432 6.43489L214.412 10.8421L203.45 20.7264L199.47 16.3192L210.432 6.43489Z" fill="#F73200"/>
<path d="M207.659 235.773L211.216 231.018L223.043 239.853L219.485 244.608L207.659 235.773Z" fill="#F73200"/>
<path fill-rule="evenodd" clip-rule="evenodd" d="M110.733 55.4637L80.223 49.3285L81.4477 14.5839L36.9075 0.957275L35.5324 40.3302H35.4465L35.2746 46.939L110.604 60.8885L110.733 55.4637Z" fill="#5078FF"/>
<path fill-rule="evenodd" clip-rule="evenodd" d="M78.9123 18.502C78.5685 27.6295 78.2032 36.7569 77.8594 45.8844C75.3671 45.3893 72.8747 44.8941 70.3824 44.399C68.4916 44.0115 66.5794 43.6456 64.6886 43.2581C62.9912 42.9137 61.2938 42.5907 59.618 42.2463C55.4497 41.4283 51.2814 40.5887 47.1347 39.7707C44.6853 39.2756 42.2359 38.802 39.7865 38.3069C40.0658 27.8232 40.3236 17.318 40.603 6.83435C45.115 8.21208 49.627 9.56828 54.1176 10.946C57.8991 12.0869 61.6591 13.2494 65.4406 14.3903C67.2239 14.9285 68.9858 15.4667 70.7691 16.0049C72.0153 16.3924 73.2615 16.7583 74.5291 17.1458C75.9687 17.5979 77.4512 18.0499 78.9123 18.502Z" fill="#121212"/>
<path d="M63.7218 21.4941C61.1435 27.5001 57.233 28.8994 56.5025 33.1617C56.1587 35.1207 56.4381 38.113 59.5965 42.2677C55.4282 41.4496 51.26 40.6101 47.1132 39.7921C46.705 38.0699 46.5116 36.4769 46.4901 35.0561C46.4901 35.0561 46.4686 33.0972 46.8339 31.2243C47.9511 25.3259 52.9574 22.8503 54.2035 16.8658C54.4614 15.6172 54.6762 13.6152 54.1176 10.9889C57.8991 12.1298 61.6591 13.2923 65.4406 14.4332C65.3117 16.0908 64.925 18.674 63.7218 21.4941Z" fill="white"/>
<path d="M67.6109 34.0875C66.8374 36.7568 67.4605 40.115 70.3825 44.3989C68.4918 44.0114 66.5795 43.6455 64.6888 43.258C62.2179 37.5103 62.6261 33.8937 63.7649 31.5257C65.3978 28.1675 68.4703 27.371 70.1032 23.2378C71.0701 20.8053 71.113 18.2866 70.7478 16.0048C71.994 16.3922 73.2401 16.7582 74.5078 17.1457C74.8516 21.2358 74.0566 24.3572 72.7245 26.7683C70.8337 30.1911 68.4918 31.0306 67.6109 34.0875Z" fill="white"/>
<path d="M191.649 84.5468C189.414 80.5213 191.584 76.1513 195.151 73.8263C199.556 70.9632 204.991 71.5014 209.869 70.1452C212.039 69.5425 214.252 68.4876 215.562 66.5717C216.293 65.4954 216.723 64.2899 216.895 63.0198H218.678V66.0981C217.453 68.9612 215.004 71.0709 211.845 72.2118C206.925 73.9986 201.124 73.0729 196.569 75.9575C194.829 77.0554 193.239 78.8637 193.26 81.0379C193.282 82.717 194.356 84.8051 196.182 85.0419C197.815 85.2572 197.815 87.8404 196.182 87.6252C194.249 87.3884 192.616 86.312 191.649 84.5468Z" fill="#F73200"/>
<path d="M176.114 91.2417C171.13 90.4667 166.489 87.2592 163.051 83.7073C161.568 82.1788 160.15 80.4997 158.281 79.4234V76.5818C161.203 77.8088 163.481 80.5858 165.78 82.8031C167.713 84.676 169.926 86.1829 172.354 87.3238C174.675 88.4217 177.726 89.498 180.218 88.3356C182.173 87.4314 183.205 85.4079 182.173 83.4059C181.164 81.49 179.316 80.1338 177.962 78.4547C175.019 74.7951 174.524 69.8223 175.921 65.4308C176.179 64.5912 176.523 63.7947 176.909 63.0198H179.853C177.962 66.1842 177.146 70.0376 178.241 73.6326C178.907 75.7853 180.326 77.2922 181.83 78.8852C183.205 80.3275 184.687 81.942 185.074 83.9656C185.504 86.1398 184.623 88.2495 182.925 89.6487C181.013 91.2417 178.521 91.6292 176.114 91.2417Z" fill="#F73200"/>
<path d="M207.505 107.322H204.497C203.53 105.708 202.606 104.158 201.231 102.78C197.858 99.379 193.002 97.4631 188.254 98.7762C183.892 99.9817 181.658 103.921 179.101 107.322H175.814C175.857 107.279 175.9 107.215 175.943 107.172C178.564 104.115 180.412 100.391 183.785 98.0443C187.695 95.3104 193.002 95.1812 197.299 97.011C201.597 98.8408 204.755 102.35 206.968 106.375C207.119 106.634 207.29 106.978 207.505 107.322Z" fill="#F73200"/>
<path d="M218.699 100.821V104.072C217.475 105.105 216.336 106.246 215.133 107.322H211.029C211.437 107.042 211.802 106.741 212.125 106.504C214.058 105.019 215.713 103.232 217.604 101.682C217.969 101.381 218.334 101.101 218.699 100.821Z" fill="#F73200"/>
<path d="M231.505 92.8564C231.29 93.4806 230.538 93.9327 229.743 93.7605L226.907 93.3084L226.628 93.2654L222.76 92.6411L221.836 92.4904L219.43 92.1029L216.1 91.5647H216.035L212.017 90.9189L211.91 90.8974V90.8974C211.287 89.9717 210.707 89.3259 209.912 89.3044C209.224 89.3044 208.494 89.7134 208.171 90.2946C205.657 89.8856 203.144 89.4766 200.651 89.0891C199.749 88.7016 198.846 88.3357 197.944 87.9482C196.999 87.5392 196.053 87.1517 195.108 86.7427C196.096 86.6781 197.106 86.592 198.094 86.5274C199.104 86.4628 200.093 86.3767 201.102 86.3121L206.968 87.2593C207.634 88.4003 209.933 88.3787 212.06 88.0774L213.435 88.2926L218.484 89.1106L221.729 89.6273L221.815 89.6488L221.944 89.6704L225.424 90.2301L225.768 90.2731V90.2731L226.585 90.4023L230.28 91.005C231.183 91.1127 231.741 92.1029 231.505 92.8564Z" fill="black"/>
<path d="M198.094 86.9354C198.094 87.2799 198.03 87.6243 197.901 87.9257C196.956 87.5167 196.01 87.1292 195.065 86.7202C196.053 86.6556 197.063 86.5695 198.051 86.5049C198.094 86.634 198.094 86.7847 198.094 86.9354Z" fill="white"/>
<path fill-rule="evenodd" clip-rule="evenodd" d="M189.07 270.196C183.806 275.987 180.068 278.613 177.769 279.926C177.318 280.184 172.849 282.682 172.763 282.552V282.531C172.097 280.959 139.481 183.679 138.213 179.782C131.768 179.653 124.097 179.007 115.567 177.35C106.651 175.606 99.0016 173.174 92.7922 170.741C95.4779 172.528 99.3239 175.499 102.762 180.105C109.981 189.771 109.68 198.92 112.538 209.533C113.956 214.828 116.47 221.609 121.304 229.23C122.829 231.663 124.591 234.16 126.632 236.743V236.743C126.998 237.217 127.363 237.669 127.75 238.142V238.142C127.234 238.314 126.718 238.508 126.203 238.68C125.257 239.003 124.312 239.348 123.367 239.671C119.65 240.984 115.932 242.275 112.237 243.589V243.589C110.819 244.084 109.401 244.579 107.983 245.074C107.983 245.074 107.983 245.074 107.983 245.095C106.973 243.739 105.92 242.275 104.803 240.725C101.537 236.119 97.8628 230.608 94.0598 224.322C81.0394 202.644 59.3817 166.543 70.4899 151.711C76.8067 143.273 91.6105 144.521 115.546 146.545C122.507 147.126 128.394 148.073 131.016 148.525C144.294 150.807 155.015 154.165 162.535 156.899C162.535 156.899 168.444 172.42 170.55 182.753C172.612 192.871 173.257 201.912 173.278 209.231C177.79 213.365 180.175 217.326 181.443 219.887C186.857 230.78 183.763 239.219 186.514 257.689C187.351 263.243 188.426 267.677 189.07 270.196Z" fill="#FF6334"/>
<path fill-rule="evenodd" clip-rule="evenodd" d="M165.672 94.8367C165.457 97.1616 165.178 100.348 164.899 103.361C160.924 101.747 156.82 100.714 152.759 100.089L153.253 96.7095C150.159 96.1714 147.538 94.8152 146.356 92.8131C144.444 89.5626 146.421 84.7405 148.612 81.6406L142.145 75.3332L151.857 78.1532C153.834 76.5172 156.347 75.0533 158.947 74.5582C159.141 75.5485 159.871 76.7755 160.666 77.529C162.492 79.3157 164.92 79.0789 165.264 79.0574C164.362 80.0691 161.762 83.2551 161.977 87.6251C162.063 89.9716 163.094 94.1263 165.672 94.8367Z" fill="#FF8F6D"/>
<path d="M171.065 77.7874C167.67 73.0299 160.301 71.7383 159.098 73.3743C158.883 73.6757 158.84 74.0847 158.926 74.5583C159.119 75.5486 159.85 76.7756 160.645 77.5291C162.471 79.3158 164.899 79.079 165.243 79.0575C164.34 80.0692 161.74 83.2552 161.955 87.6252C162.084 89.9717 163.094 94.1479 165.672 94.8368C165.694 94.8368 165.715 94.8368 165.715 94.8583C167.112 95.2027 168.422 94.4062 168.788 94.191C172.806 91.6293 174.868 83.1261 171.065 77.7874Z" fill="url(#paint0_linear_492_85)"/>
<path d="M150.503 90.5529C148.075 90.5529 146.421 89.1106 146.399 89.0891L147.388 87.9697L146.894 88.5294L147.388 87.9697C147.517 88.0773 150.589 90.6821 154.392 87.3884L155.381 88.5294C153.597 90.0793 151.921 90.5529 150.503 90.5529Z" fill="black"/>
<path d="M153.855 80.6719C154.413 80.6719 154.865 80.2189 154.865 79.6601C154.865 79.1013 154.413 78.6483 153.855 78.6483C153.297 78.6483 152.845 79.1013 152.845 79.6601C152.845 80.2189 153.297 80.6719 153.855 80.6719Z" fill="black"/>
<path d="M156.141 74.9681L157.595 74.5837L158.79 79.1213L157.335 79.5057L156.141 74.9681Z" fill="black"/>
<path fill-rule="evenodd" clip-rule="evenodd" d="M158.174 80.7797L165.565 84.7622L165.178 85.5156L157.98 81.6407C157.4 83.1476 155.961 84.2455 154.242 84.2455C152.05 84.2455 150.267 82.4588 150.267 80.263C150.267 78.0673 152.05 76.2805 154.242 76.2805C156.433 76.2805 158.217 78.0673 158.217 80.263C158.217 80.4352 158.195 80.6075 158.174 80.7797ZM151.104 80.262C151.104 81.9841 152.5 83.3834 154.219 83.3834C155.938 83.3834 157.335 81.9841 157.335 80.262C157.335 78.5398 155.938 77.1406 154.219 77.1406C152.5 77.1406 151.104 78.5398 151.104 80.262Z" fill="black"/>
<path fill-rule="evenodd" clip-rule="evenodd" d="M161.117 85.3863C164.813 83.4274 168.122 82.9538 169.411 84.2024C169.884 84.6544 169.948 85.1926 169.948 85.3433C170.141 87.539 165.973 90.0146 162.17 90.2514C161.418 90.2945 160.816 90.2514 160.473 90.2084C160.709 88.5723 160.924 86.9793 161.117 85.3863Z" fill="#FF8F6D"/>
<path d="M136.774 244.127L135.828 245.16L134.475 246.624L132.756 248.454L131.402 249.917L131.338 249.982L130.908 250.456L129.49 251.984L128.588 252.953L128.115 253.426L126.439 255.127L125.859 255.73L103.922 277.795L103.535 278.182L102.783 278.936C102.783 278.936 102.783 278.936 102.762 278.936C102.676 278.893 102.59 278.828 102.504 278.785C102.439 278.742 102.396 278.721 102.332 278.677C102.267 278.634 102.181 278.57 102.117 278.527C102.052 278.484 101.967 278.419 101.902 278.376C101.838 278.333 101.773 278.268 101.709 278.204C101.644 278.161 101.58 278.096 101.537 278.053C101.537 278.053 101.537 278.053 101.515 278.032C101.451 277.967 101.386 277.924 101.322 277.859C101.258 277.795 101.193 277.73 101.15 277.666C101.107 277.601 101.043 277.558 101 277.494C100.957 277.45 100.914 277.386 100.871 277.343C100.828 277.3 100.785 277.257 100.763 277.192C100.677 277.084 100.591 276.977 100.527 276.869C100.291 276.525 100.076 276.159 99.9254 275.793C99.689 275.212 99.5172 274.609 99.4957 273.985C99.4742 273.554 99.5172 273.102 99.6246 272.65C99.8824 271.789 100.14 270.928 100.398 270.067L100.957 268.215C101.279 267.161 101.601 266.106 101.924 265.051C101.967 264.922 102.01 264.793 102.031 264.663C104.008 258.141 105.984 251.618 107.961 245.095V245.074C109.379 244.579 110.797 244.084 112.215 243.588C115.932 242.297 119.649 240.984 123.345 239.671C124.29 239.348 125.236 239.003 126.181 238.68C126.697 238.508 127.212 238.314 127.728 238.142V238.142C127.75 238.142 127.771 238.164 127.793 238.185C127.814 238.207 127.857 238.228 127.9 238.271C128.007 238.336 128.136 238.422 128.308 238.53C128.33 238.551 128.373 238.573 128.394 238.594L128.416 238.616V238.616C128.437 238.637 128.437 238.637 128.459 238.637C128.48 238.637 128.502 238.659 128.502 238.68C128.545 238.702 128.566 238.723 128.609 238.745C128.63 238.745 128.63 238.766 128.652 238.766C128.695 238.809 128.759 238.831 128.802 238.874C128.845 238.917 128.91 238.939 128.953 238.982V238.982V238.982C128.974 238.982 128.996 239.003 129.017 239.025C129.06 239.046 129.082 239.068 129.125 239.089C129.168 239.132 129.232 239.154 129.275 239.197C129.275 239.197 129.297 239.197 129.297 239.218C129.361 239.261 129.425 239.305 129.468 239.348C129.597 239.434 129.726 239.52 129.855 239.606C130.242 239.864 130.693 240.166 131.144 240.467C131.639 240.79 132.154 241.134 132.67 241.479C132.713 241.522 132.777 241.543 132.82 241.586C132.928 241.673 133.057 241.737 133.164 241.823C133.185 241.845 133.207 241.845 133.228 241.866C133.422 241.995 133.615 242.125 133.809 242.254C134.195 242.512 134.582 242.77 134.969 243.029C135.205 243.179 135.442 243.352 135.678 243.502C135.785 243.588 135.914 243.653 136.022 243.739C136.043 243.761 136.065 243.782 136.108 243.804C136.215 243.89 136.344 243.954 136.451 244.04C136.602 244.019 136.688 244.084 136.774 244.127Z" fill="#4D00FF"/>
<path d="M136.774 244.127L135.828 245.16L134.475 246.624L132.756 248.454L131.402 249.918L131.338 249.982L130.908 250.456L129.49 251.984L128.588 252.953L128.115 253.426L126.439 255.127L125.859 255.73L103.922 277.795L103.535 278.183L102.783 278.936C102.783 278.936 102.783 278.936 102.762 278.936C102.676 278.893 102.59 278.828 102.504 278.785C102.439 278.742 102.396 278.721 102.332 278.678C102.267 278.635 102.181 278.57 102.117 278.527C102.053 278.484 101.967 278.419 101.902 278.376C101.838 278.333 101.773 278.269 101.709 278.204C101.644 278.161 101.58 278.096 101.537 278.053C101.537 278.053 101.537 278.053 101.515 278.032C101.451 277.967 101.386 277.924 101.322 277.86C101.258 277.795 101.193 277.73 101.15 277.666C101.107 277.601 101.043 277.558 101 277.494C100.957 277.451 100.914 277.386 100.871 277.343C100.828 277.3 100.785 277.257 100.763 277.192C100.677 277.085 100.592 276.977 100.527 276.869C100.291 276.525 100.076 276.159 99.9254 275.793C99.6891 275.212 99.5172 274.609 99.4957 273.985C100.076 274.092 100.699 274.2 101.322 274.243C106.35 274.544 109.594 269.077 121.411 257.065C122.464 256.01 123.302 255.149 123.818 254.653C123.173 252.931 122.443 250.477 122.228 247.463C122.034 244.794 122.271 242.512 122.572 240.812C122.572 240.812 122.572 240.812 122.572 240.79C123.216 240.489 123.861 240.187 124.505 239.864C125.021 239.628 125.515 239.369 126.031 239.132V239.132V239.132C126.589 238.788 127.17 238.465 127.728 238.121V238.121C127.75 238.142 127.771 238.142 127.793 238.164C127.814 238.185 127.857 238.207 127.9 238.25C128.007 238.314 128.136 238.401 128.308 238.508C128.33 238.53 128.373 238.551 128.394 238.573L128.416 238.594V238.594C128.437 238.616 128.48 238.637 128.523 238.659V238.659C128.566 238.68 128.588 238.702 128.631 238.723C128.652 238.723 128.652 238.745 128.674 238.745C128.717 238.788 128.781 238.81 128.824 238.853C128.867 238.896 128.931 238.917 128.974 238.96V238.96C128.996 238.982 129.017 238.982 129.039 239.003C129.082 239.025 129.103 239.046 129.146 239.068C129.168 239.089 129.211 239.111 129.232 239.132C129.254 239.154 129.297 239.176 129.318 239.197C129.383 239.24 129.447 239.283 129.49 239.326C129.619 239.412 129.748 239.498 129.877 239.585C130.263 239.843 130.715 240.144 131.166 240.446C131.66 240.769 132.176 241.113 132.691 241.457C132.734 241.5 132.799 241.522 132.842 241.565C132.949 241.651 133.078 241.716 133.186 241.802C133.207 241.823 133.229 241.823 133.25 241.845C133.443 241.974 133.637 242.103 133.83 242.232C134.217 242.491 134.604 242.749 134.99 243.007C135.227 243.158 135.463 243.33 135.699 243.481C135.807 243.567 135.936 243.632 136.043 243.718C136.065 243.739 136.086 243.761 136.129 243.782C136.237 243.868 136.365 243.933 136.473 244.019C136.602 244.019 136.688 244.084 136.774 244.127Z" fill="white"/>
<path d="M136.774 244.127L135.828 245.16L134.475 246.624L132.756 248.454L131.402 249.918L131.338 249.982L130.908 250.456L129.49 251.984L128.588 252.953L128.115 253.426L126.439 255.127L125.859 255.73C124.119 251.209 124.119 245.225 126.095 239.154V239.132V239.132C126.138 238.982 126.203 238.831 126.246 238.659C126.761 238.487 127.277 238.293 127.793 238.121V238.121C127.814 238.121 127.836 238.142 127.857 238.164C127.879 238.185 127.922 238.207 127.964 238.25C128.072 238.314 128.201 238.401 128.373 238.508C128.394 238.53 128.437 238.551 128.459 238.573L128.48 238.594V238.594C128.502 238.616 128.502 238.616 128.523 238.616C128.545 238.616 128.566 238.637 128.566 238.659V238.659C128.609 238.68 128.631 238.702 128.674 238.723C128.695 238.723 128.695 238.745 128.716 238.745C128.759 238.788 128.824 238.81 128.867 238.853C128.91 238.896 128.974 238.917 129.017 238.96V238.96C129.039 238.96 129.06 238.982 129.082 239.003C129.125 239.025 129.146 239.046 129.189 239.068C129.211 239.089 129.254 239.111 129.275 239.132C129.297 239.154 129.318 239.154 129.34 239.176C129.34 239.176 129.361 239.176 129.361 239.197C129.426 239.24 129.49 239.283 129.533 239.326C129.662 239.412 129.791 239.498 129.92 239.585C130.306 239.843 130.758 240.144 131.209 240.446C131.703 240.769 132.219 241.113 132.734 241.457C132.777 241.5 132.842 241.522 132.885 241.565C132.992 241.651 133.121 241.716 133.229 241.802C133.25 241.823 133.271 241.823 133.293 241.845C133.486 241.974 133.68 242.103 133.873 242.232C134.26 242.491 134.647 242.749 135.033 243.007C135.27 243.158 135.506 243.33 135.742 243.481C135.85 243.567 135.979 243.632 136.086 243.718C136.108 243.739 136.129 243.761 136.172 243.782C136.28 243.868 136.408 243.933 136.516 244.019C136.602 244.019 136.688 244.084 136.774 244.127Z" fill="#B600A0"/>
<path fill-rule="evenodd" clip-rule="evenodd" d="M140.834 246.861C140.62 247.076 140.383 247.291 140.147 247.506C139.653 247.98 139.18 248.454 138.686 248.927C138.084 249.53 137.461 250.111 136.86 250.692C136.365 251.166 135.893 251.64 135.399 252.113C134.711 252.781 134.023 253.448 133.336 254.115C132.842 254.589 132.369 255.062 131.875 255.536C129.361 257.947 126.869 260.38 124.355 262.791C121.067 265.955 117.501 268.883 114.428 272.263V272.263C114.299 272.413 114.17 272.564 114.02 272.715C114.02 272.715 108.842 278.57 105.684 279.194C104.158 279.496 103.105 279.087 102.804 278.936C102.74 278.914 102.719 278.893 102.719 278.893C102.525 278.807 102.267 278.656 101.967 278.441C101.859 278.355 101.494 278.096 101.086 277.644C100.871 277.429 100.656 277.149 100.463 276.826C100.291 276.568 100.097 276.224 99.9254 275.771C100.742 275.858 101.687 275.858 102.761 275.707C108.326 274.889 110.991 270.239 118.811 262.339C120.358 260.789 122.722 258.464 125.816 255.751C126.267 254.826 126.718 253.9 127.169 252.974L128.007 251.231C128.416 250.413 128.802 249.595 129.211 248.777C129.49 248.195 129.769 247.614 130.049 247.033C130.414 246.301 130.758 245.569 131.101 244.837V244.837C131.381 244.256 131.66 243.675 131.939 243.093C132.197 242.555 132.455 242.017 132.734 241.479V241.479C133.228 241.436 137.182 241.221 139.502 244.105C140.297 245.052 140.663 246.086 140.834 246.861Z" fill="#4ABA6B"/>
<path d="M140.168 247.506C139.674 247.98 139.202 248.454 138.707 248.927L134.453 246.624L131.101 244.815V244.815C131.381 244.234 131.66 243.653 131.939 243.072L135.807 245.16L140.168 247.506Z" fill="#FFE323"/>
<path d="M136.881 250.692C136.387 251.166 135.914 251.64 135.42 252.113L131.381 249.939L129.189 248.755C129.469 248.174 129.748 247.592 130.027 247.011L132.713 248.475L136.881 250.692Z" fill="#FFE323"/>
<path d="M133.357 254.115C132.863 254.589 132.391 255.062 131.896 255.536L128.072 253.469L127.148 252.974L127.986 251.23L129.447 252.027L133.357 254.115Z" fill="#FFE323"/>
<path d="M116.878 255.751C118.48 255.751 119.778 254.45 119.778 252.845C119.778 251.24 118.48 249.939 116.878 249.939C115.276 249.939 113.977 251.24 113.977 252.845C113.977 254.45 115.276 255.751 116.878 255.751Z" fill="#F73200"/>
<path d="M114.45 272.262C114.321 272.413 114.192 272.564 114.042 272.715C114.042 272.715 108.864 278.57 105.705 279.194C103.879 279.56 102.719 278.893 102.719 278.893C102.525 278.807 102.267 278.656 101.967 278.441C101.859 278.355 101.494 278.096 101.086 277.644C101.709 277.601 102.375 277.666 102.998 277.903C103.793 278.225 103.879 278.548 104.459 278.656C106.178 278.957 107.553 276.46 109.551 274.717C110.625 273.812 112.151 272.844 114.45 272.262Z" fill="#F73200"/>
<path d="M127.942 238.25C127.298 238.551 126.675 238.853 126.051 239.154C124.891 239.714 123.752 240.252 122.592 240.79C122.485 240.855 122.356 240.898 122.248 240.962C119.455 242.297 116.598 243.632 113.762 244.966C112.172 248.97 110.796 253.06 109.722 257.086C109.421 258.205 109.164 259.26 108.906 260.272C107.617 265.352 106.693 269.033 103.663 270.067C103.169 270.239 102.653 270.304 102.116 270.304C101.579 270.304 101.02 270.217 100.419 270.045L100.977 268.194C101.751 268.409 102.438 268.409 103.04 268.215C105.081 267.527 105.898 264.297 107.015 259.798C107.273 258.765 107.531 257.71 107.831 256.591C108.97 252.372 110.41 248.088 112.086 243.89L112.215 243.567V243.567V243.545L112.558 243.373C115.523 241.995 118.488 240.575 121.389 239.197C123.129 238.379 124.87 237.539 126.61 236.7V236.7C126.975 237.173 127.341 237.625 127.727 238.099C127.749 238.099 127.77 238.121 127.792 238.142C127.856 238.207 127.899 238.228 127.942 238.25Z" fill="#FFE323"/>
<path d="M200.608 275.126L199.899 276.331L198.911 278.075L197.665 280.249L196.655 281.993L196.612 282.079L196.29 282.617L195.237 284.425L194.571 285.588L194.205 286.169L192.938 288.192L192.508 288.903L176.136 315.317L175.856 315.769L175.298 316.673C175.298 316.673 175.298 316.673 175.276 316.673C175.19 316.651 175.083 316.608 174.997 316.587C174.933 316.565 174.868 316.544 174.804 316.522C174.718 316.501 174.632 316.457 174.546 316.414C174.46 316.371 174.395 316.35 174.31 316.307C174.224 316.264 174.159 316.242 174.073 316.199C174.009 316.156 173.923 316.113 173.858 316.092C173.858 316.092 173.837 316.092 173.837 316.07C173.751 316.027 173.686 315.984 173.6 315.941C173.536 315.898 173.45 315.855 173.386 315.79C173.321 315.747 173.257 315.704 173.192 315.661C173.128 315.618 173.085 315.575 173.042 315.553C172.999 315.51 172.956 315.489 172.891 315.446C172.784 315.36 172.677 315.273 172.591 315.187C172.29 314.908 171.989 314.606 171.753 314.262C171.387 313.767 171.108 313.207 170.936 312.604C170.829 312.174 170.764 311.743 170.764 311.269C170.829 310.365 170.893 309.483 170.936 308.579L171.065 306.641C171.13 305.543 171.216 304.445 171.28 303.348C171.28 303.218 171.301 303.089 171.301 302.96C171.774 296.157 172.225 289.355 172.677 282.552V282.531C173.944 281.734 175.212 280.916 176.48 280.12C179.81 278.01 183.14 275.901 186.449 273.812C187.287 273.274 188.146 272.736 188.984 272.198C189.457 271.897 189.908 271.617 190.381 271.315V271.315C190.402 271.315 190.424 271.337 190.445 271.337C190.488 271.358 190.531 271.358 190.574 271.38C190.682 271.423 190.832 271.488 191.026 271.552C191.047 271.574 191.09 271.574 191.133 271.595C191.154 271.595 191.154 271.595 191.176 271.617V271.617C191.197 271.617 191.219 271.638 191.219 271.638C191.24 271.638 191.262 271.66 191.283 271.66C191.326 271.681 191.348 271.681 191.391 271.703C191.412 271.703 191.412 271.703 191.434 271.724C191.477 271.746 191.541 271.767 191.606 271.789C191.67 271.81 191.713 271.832 191.778 271.853V271.853V271.853C191.799 271.853 191.82 271.875 191.842 271.875C191.885 271.897 191.928 271.897 191.971 271.918C192.014 271.94 192.078 271.961 192.143 271.983H192.164C192.229 272.004 192.293 272.026 192.379 272.069C192.53 272.112 192.658 272.176 192.809 272.241C193.26 272.413 193.733 272.585 194.27 272.779C194.807 272.994 195.387 273.21 195.989 273.425C196.053 273.446 196.096 273.468 196.161 273.49C196.29 273.533 196.418 273.597 196.547 273.64C196.569 273.64 196.59 273.662 196.612 273.662C196.827 273.748 197.042 273.834 197.256 273.899C197.686 274.071 198.116 274.221 198.546 274.394C198.803 274.501 199.083 274.587 199.341 274.695C199.469 274.738 199.598 274.803 199.727 274.846C199.749 274.867 199.792 274.867 199.813 274.889C199.942 274.932 200.071 274.996 200.2 275.039C200.415 275.061 200.522 275.104 200.608 275.126Z" fill="#4D00FF"/>
<path d="M200.608 275.125L199.899 276.331L198.911 278.075L197.665 280.249L196.655 281.993L196.612 282.079L196.29 282.617L195.237 284.425L194.571 285.588L194.205 286.169L192.938 288.192L192.508 288.903L176.136 315.316L175.857 315.768L175.298 316.673C175.298 316.673 175.298 316.673 175.276 316.673C175.19 316.651 175.083 316.608 174.997 316.586C174.933 316.565 174.868 316.543 174.804 316.522C174.718 316.5 174.632 316.457 174.546 316.414C174.46 316.371 174.396 316.35 174.31 316.307C174.224 316.264 174.159 316.242 174.073 316.199C174.009 316.156 173.923 316.113 173.858 316.091C173.858 316.091 173.837 316.091 173.837 316.07C173.751 316.027 173.686 315.984 173.601 315.941C173.536 315.898 173.45 315.855 173.386 315.79C173.321 315.747 173.257 315.704 173.192 315.661C173.128 315.618 173.085 315.575 173.042 315.553C172.999 315.51 172.956 315.489 172.891 315.446C172.784 315.359 172.677 315.273 172.591 315.187C172.29 314.907 171.989 314.606 171.753 314.262C171.387 313.766 171.108 313.207 170.936 312.604C171.516 312.561 172.161 312.561 172.784 312.453C177.747 311.614 179.681 305.565 188.512 291.206C189.285 289.936 189.93 288.924 190.317 288.321C189.285 286.793 188.039 284.554 187.137 281.67C186.342 279.108 186.062 276.826 185.998 275.125C185.998 275.125 185.998 275.125 185.998 275.104C186.557 274.673 187.115 274.221 187.674 273.769C188.125 273.425 188.555 273.059 188.984 272.714V272.714V272.714C189.457 272.262 189.93 271.81 190.424 271.337V271.337C190.445 271.337 190.467 271.358 190.488 271.358C190.531 271.38 190.574 271.38 190.617 271.401C190.725 271.444 190.875 271.509 191.069 271.573C191.09 271.595 191.133 271.595 191.176 271.617C191.197 271.617 191.197 271.617 191.219 271.638V271.638C191.262 271.66 191.283 271.66 191.326 271.681V271.681C191.369 271.703 191.391 271.703 191.434 271.724C191.455 271.724 191.455 271.724 191.477 271.746C191.52 271.767 191.584 271.789 191.649 271.81C191.713 271.832 191.756 271.853 191.821 271.875V271.875C191.842 271.875 191.864 271.896 191.885 271.896C191.928 271.918 191.971 271.918 192.014 271.939C192.035 271.961 192.078 271.961 192.1 271.982C192.143 272.004 192.164 272.004 192.207 272.026C192.272 272.047 192.336 272.069 192.422 272.112C192.573 272.155 192.701 272.219 192.852 272.284C193.303 272.456 193.776 272.628 194.313 272.822C194.85 273.037 195.43 273.253 196.032 273.468C196.096 273.489 196.139 273.511 196.204 273.532C196.333 273.575 196.461 273.64 196.59 273.683C196.612 273.683 196.633 273.705 196.655 273.705C196.87 273.791 197.085 273.877 197.299 273.941C197.729 274.114 198.159 274.264 198.589 274.437C198.846 274.544 199.126 274.63 199.384 274.738C199.512 274.781 199.641 274.846 199.77 274.889C199.792 274.91 199.835 274.91 199.856 274.932C199.985 274.975 200.114 275.039 200.243 275.082C200.415 275.061 200.522 275.104 200.608 275.125Z" fill="white"/>
<path d="M200.608 275.126L199.899 276.331L198.911 278.075L197.665 280.249L196.655 281.993L196.612 282.079L196.29 282.617L195.237 284.425L194.571 285.588L194.205 286.169L192.938 288.193L192.508 288.903C189.801 284.877 188.447 279.065 189.006 272.693V272.672V272.672C189.027 272.499 189.027 272.349 189.049 272.176C189.522 271.875 189.973 271.595 190.445 271.294V271.294C190.467 271.294 190.488 271.315 190.51 271.315C190.553 271.337 190.596 271.337 190.639 271.358C190.746 271.401 190.897 271.466 191.09 271.531C191.111 271.552 191.154 271.552 191.197 271.574C191.219 271.574 191.219 271.574 191.24 271.595V271.595C191.262 271.595 191.283 271.617 191.283 271.617C191.305 271.617 191.326 271.638 191.348 271.638V271.638C191.391 271.66 191.412 271.66 191.455 271.681C191.477 271.681 191.477 271.681 191.498 271.703C191.541 271.724 191.606 271.746 191.67 271.767C191.735 271.789 191.778 271.81 191.842 271.832V271.832C191.863 271.832 191.885 271.854 191.906 271.854C191.949 271.875 191.992 271.875 192.035 271.897C192.057 271.918 192.1 271.918 192.121 271.94C192.143 271.94 192.164 271.961 192.186 271.961H192.207C192.272 271.983 192.336 272.004 192.422 272.047C192.573 272.09 192.701 272.155 192.852 272.219C193.303 272.392 193.776 272.564 194.313 272.758C194.85 272.973 195.43 273.188 196.032 273.403C196.096 273.425 196.139 273.447 196.204 273.468C196.333 273.511 196.461 273.576 196.59 273.619C196.612 273.619 196.633 273.64 196.655 273.64C196.87 273.726 197.085 273.812 197.299 273.877C197.729 274.049 198.159 274.2 198.589 274.372C198.846 274.48 199.126 274.566 199.384 274.674C199.512 274.717 199.641 274.781 199.77 274.824C199.792 274.846 199.835 274.846 199.856 274.867C199.985 274.91 200.114 274.975 200.243 275.018C200.415 275.061 200.522 275.104 200.608 275.126Z" fill="#B600A0"/>
<path fill-rule="evenodd" clip-rule="evenodd" d="M205.185 276.869C205.013 277.128 204.841 277.407 204.669 277.666C204.304 278.247 203.939 278.807 203.573 279.366C203.122 280.077 202.649 280.787 202.198 281.519C201.833 282.079 201.468 282.66 201.102 283.22C200.587 284.016 200.071 284.813 199.556 285.631C199.19 286.19 198.825 286.772 198.46 287.331C196.569 290.259 194.657 293.187 192.766 296.093C190.274 299.925 187.459 303.563 185.224 307.567V307.567C185.117 307.739 185.031 307.911 184.924 308.083C184.924 308.083 181.185 314.951 178.242 316.264C176.823 316.91 175.706 316.737 175.362 316.673C175.298 316.651 175.255 316.651 175.255 316.651C175.04 316.608 174.761 316.522 174.439 316.393C174.31 316.35 173.901 316.178 173.407 315.812C173.149 315.639 172.892 315.424 172.612 315.166C172.397 314.951 172.118 314.671 171.86 314.262C172.677 314.154 173.601 313.939 174.589 313.551C179.831 311.485 181.4 306.361 187.223 296.911C188.383 295.038 190.166 292.24 192.573 288.903C192.809 287.891 193.024 286.901 193.26 285.889L193.69 283.995C193.905 283.112 194.098 282.208 194.291 281.325C194.442 280.701 194.571 280.055 194.721 279.431C194.893 278.635 195.086 277.86 195.258 277.063V277.063C195.409 276.439 195.559 275.814 195.688 275.169C195.817 274.587 195.946 274.006 196.096 273.403V273.403C196.569 273.253 200.372 272.155 203.294 274.458C204.261 275.233 204.841 276.159 205.185 276.869Z" fill="#4ABA6B"/>
<path d="M204.669 277.644C204.304 278.226 203.939 278.785 203.573 279.345L198.932 278.075L195.28 277.063V277.063C195.43 276.439 195.581 275.815 195.71 275.169L199.942 276.331L204.669 277.644Z" fill="#FFE323"/>
<path d="M202.177 281.498C201.811 282.057 201.446 282.639 201.081 283.198L196.676 281.971L194.291 281.304C194.442 280.68 194.571 280.034 194.721 279.41L197.686 280.228L202.177 281.498Z" fill="#FFE323"/>
<path d="M199.513 285.609C199.147 286.169 198.782 286.75 198.417 287.31L194.227 286.147L193.217 285.868L193.647 283.973L195.237 284.404L199.513 285.609Z" fill="#FFE323"/>
<path d="M183.183 290.991C184.785 290.991 186.084 289.69 186.084 288.085C186.084 286.48 184.785 285.179 183.183 285.179C181.581 285.179 180.283 286.48 180.283 288.085C180.283 289.69 181.581 290.991 183.183 290.991Z" fill="#F73200"/>
<path d="M185.16 307.567C185.053 307.739 184.967 307.911 184.859 308.084C184.859 308.084 181.121 314.951 178.177 316.264C176.48 317.017 175.212 316.63 175.212 316.63C174.997 316.587 174.718 316.501 174.396 316.372C174.267 316.329 173.858 316.156 173.364 315.79C173.966 315.597 174.61 315.51 175.298 315.618C176.157 315.747 176.308 316.049 176.888 316.027C178.628 315.941 179.402 313.186 180.97 311.054C181.787 309.935 183.054 308.643 185.16 307.567Z" fill="#F73200"/>
<path d="M190.682 271.38C190.123 271.81 189.586 272.262 189.027 272.693C188.017 273.489 187.029 274.286 186.019 275.082C185.912 275.169 185.826 275.233 185.718 275.319C183.29 277.235 180.82 279.194 178.349 281.132C177.683 285.394 177.274 289.678 177.124 293.854C177.081 295.017 177.06 296.093 177.038 297.126C176.931 302.379 176.866 306.168 174.137 307.847C173.686 308.126 173.214 308.32 172.698 308.428C172.182 308.557 171.602 308.6 171 308.557L171.129 306.62C171.924 306.663 172.59 306.512 173.128 306.168C174.954 305.048 175.018 301.69 175.126 297.062C175.147 296.007 175.169 294.909 175.212 293.746C175.384 289.376 175.813 284.877 176.522 280.421L176.587 280.077V280.077V280.055L176.888 279.818C179.466 277.795 182.044 275.771 184.558 273.769C186.062 272.564 187.566 271.38 189.092 270.174V270.174C189.543 270.54 190.015 270.906 190.51 271.294C190.531 271.294 190.553 271.315 190.574 271.315C190.596 271.358 190.639 271.38 190.682 271.38Z" fill="#FFE323"/>
<path fill-rule="evenodd" clip-rule="evenodd" d="M229.614 109.023C225.919 107.688 222.245 106.375 218.549 105.041C218.42 104.998 218.27 104.933 218.141 104.89C216.186 108.786 213.908 112.92 211.265 117.225C211.179 117.354 211.093 117.505 211.007 117.634C210.148 119.012 209.289 120.368 208.408 121.659C205.722 125.707 203.015 129.345 200.415 132.595C197.729 128.914 193.797 124.092 188.404 119.098C180.777 112.037 172.913 107.129 167.907 104.696C166.897 104.201 165.887 103.771 164.877 103.34C160.902 101.725 156.799 100.692 152.738 100.068C148.269 99.379 143.821 99.1853 139.631 99.3144C137.44 99.379 135.334 99.5297 133.293 99.745C123.603 100.757 115.997 103.125 113.483 103.921C113.247 98.4103 113.182 92.5549 113.354 86.3552C113.397 84.8698 113.44 83.4275 113.505 81.9852C113.591 79.7894 113.719 77.6582 113.87 75.5486C114.063 72.707 114.3 69.9731 114.579 67.3037C114.428 67.2607 114.278 67.2176 114.128 67.1746C109.508 65.8399 104.889 64.4837 100.248 63.149C100.054 63.0844 99.8611 63.0414 99.6892 62.9768C98.9157 68.294 98.2711 73.2667 97.691 77.8089C96.853 84.5254 96.4233 87.8836 96.2514 90.1439C95.2201 103.168 94.4037 113.372 100.334 118.969C103.428 121.896 107.145 122.413 114.042 123.382C122.421 124.566 129.404 123.532 133.83 122.521C132.949 126.116 132.154 130.249 131.617 134.813C131.252 137.977 131.059 140.969 130.994 143.725C130.951 145.382 130.951 146.954 130.994 148.461C131.961 148.633 132.906 148.805 133.83 148.977C145.497 151.173 155.187 154.187 162.514 156.835V156.835C166.338 150.118 170.163 143.423 173.987 136.707C176.415 139.29 180.261 142.821 185.633 145.942C187.244 146.868 188.791 147.772 190.317 148.568C192.315 149.623 194.248 150.527 196.182 151.108C198.395 151.776 200.587 152.034 202.843 151.668C211.201 150.333 216.057 141.206 222.309 129.452C226.671 121.25 229.142 114.039 230.56 109.303C230.259 109.238 229.937 109.131 229.614 109.023Z" fill="#5F2CE6"/>
<path d="M137.139 103.404C135.377 103.749 133.68 102.586 133.336 100.821C133.272 100.455 133.25 100.111 133.315 99.7449C135.334 99.5296 137.461 99.3789 139.653 99.3143C139.674 99.4004 139.696 99.4865 139.717 99.5727C140.04 101.359 138.901 103.06 137.139 103.404Z" fill="#00B657"/>
<path d="M101.687 110.401C103.479 110.401 104.932 108.945 104.932 107.15C104.932 105.355 103.479 103.9 101.687 103.9C99.8955 103.9 98.4429 105.355 98.4429 107.15C98.4429 108.945 99.8955 110.401 101.687 110.401Z" fill="#FFE323"/>
<path d="M113.891 75.5917C113.741 77.6798 113.634 79.8325 113.526 82.0283C111.915 82.1574 110.411 81.038 110.11 79.402C109.766 77.6367 110.926 75.9361 112.667 75.5917C113.096 75.5056 113.505 75.5056 113.891 75.5917Z" fill="#00B657"/>
<path d="M154.22 135.394C156.012 135.394 157.465 133.938 157.465 132.143C157.465 130.348 156.012 128.893 154.22 128.893C152.429 128.893 150.976 130.348 150.976 132.143C150.976 133.938 152.429 135.394 154.22 135.394Z" fill="#00B657"/>
<path d="M173.085 122.284C174.877 122.284 176.329 120.828 176.329 119.033C176.329 117.238 174.877 115.783 173.085 115.783C171.293 115.783 169.84 117.238 169.84 119.033C169.84 120.828 171.293 122.284 173.085 122.284Z" fill="#FFE323"/>
<path d="M196.204 151.173C194.27 150.592 192.336 149.709 190.338 148.633C190.639 147.449 191.584 146.458 192.873 146.222C194.635 145.877 196.333 147.04 196.676 148.805C196.848 149.644 196.655 150.484 196.204 151.173Z" fill="#00B657"/>
<path d="M133.852 149.02C132.928 148.848 131.961 148.676 131.016 148.504C130.973 146.997 130.973 145.425 131.016 143.768C132.648 143.617 134.174 144.736 134.496 146.394C134.668 147.363 134.41 148.31 133.852 149.02Z" fill="#00B657"/>
<path d="M212.06 123.661C210.513 123.963 208.988 123.102 208.429 121.659C209.289 120.368 210.17 119.011 211.029 117.634C211.115 117.505 211.201 117.354 211.287 117.225C212.877 117.139 214.338 118.236 214.639 119.851C214.961 121.616 213.801 123.317 212.06 123.661Z" fill="#FFE323"/>
<path fill-rule="evenodd" clip-rule="evenodd" d="M114.149 67.2177C109.53 65.883 104.91 64.5268 100.269 63.1921C98.5504 60.5658 98.0132 57.4659 98.7008 54.6459C98.2496 54.4306 98.1636 54.4091 98.1636 54.4091C92.6203 52.9883 88.0653 55.6361 86.905 53.6557C86.8621 53.5911 86.6257 53.1605 86.6902 52.6869C85.8737 52.8376 85.2291 52.7731 84.7994 52.2564C84.7565 52.2134 84.3697 51.7398 84.4127 51.1585C84.4986 50.2974 85.5514 49.6732 86.8621 49.178C85.444 49.3072 84.4342 49.2641 83.9615 48.4676C83.9185 48.4031 83.6177 47.8649 83.7896 47.3267C84.1978 45.949 87.0984 45.7122 89.3974 45.54C91.2882 45.3893 93.5442 45.2386 96.3803 45.9705C98.5933 46.5302 100.205 47.3913 101.258 47.9725C101.795 48.2739 102.31 48.5753 102.762 48.8551C102.289 47.2406 101.816 45.6261 101.344 43.99C99.0875 44.0761 97.1323 44.0977 95.5638 44.0977C93.2434 44.0977 91.7394 44.0116 91.2452 43.0859C91.2022 42.9783 90.9874 42.6123 91.0948 42.2248C91.3096 41.4929 92.4699 40.9978 97.8843 40.6964C101.193 40.5242 102.826 40.4381 103.234 40.6533C104.695 41.4283 104.996 42.8491 107.037 49.2211C107.424 49.8238 111.936 59.5756 114.149 67.2177Z" fill="#FF8F6D"/>
<path fill-rule="evenodd" clip-rule="evenodd" d="M226.928 93.3083L226.649 93.2653L222.782 92.641L221.858 92.4903L219.451 92.1028L216.121 91.5647H216.057L212.039 90.9188C212.017 90.9404 212.017 90.9834 211.996 91.005V91.005C211.974 90.9619 211.953 90.9188 211.931 90.8973V90.8973C211.308 89.9717 210.728 89.3258 209.933 89.3043C209.245 89.3043 208.515 89.7133 208.193 90.2946C207.935 90.7466 207.548 91.9091 210.019 95.5687C209.245 97.6353 208.988 99.1637 209.74 99.8956C209.804 99.9387 210.105 100.24 210.535 100.283C211.179 100.348 211.867 99.8526 212.511 99.0345C212.511 99.0561 212.49 99.0776 212.49 99.0991C212.146 100.154 212.082 100.972 212.511 101.489C212.769 101.79 213.156 101.898 213.285 101.919C213.629 101.984 213.994 101.833 214.381 101.532C214.488 101.446 214.617 101.338 214.724 101.23C215.82 102.328 217.066 103.469 218.506 104.632C218.527 104.782 218.549 104.911 218.57 105.062C222.266 106.397 225.94 107.71 229.636 109.045C227.831 99.2929 226.95 93.6313 226.928 93.3083Z" fill="#FF8F6D"/>
<path fill-rule="evenodd" clip-rule="evenodd" d="M212.017 88.0343C212.619 87.9482 213.199 87.8405 213.714 87.7329C213.607 87.8836 213.5 88.0558 213.371 88.2496L218.42 89.0676L221.664 89.5842L221.75 89.6058L221.879 89.6273L224.93 90.1224L226.52 90.3807C226.155 88.4864 225.661 87.3669 224.629 86.5489C224.2 86.2045 223.19 85.817 221.17 85.042C218.592 84.0518 217.303 83.5567 215.949 83.5136C214.746 83.4706 215.09 83.7289 211.372 84.3962C208.558 84.8913 207.204 84.9344 206.817 85.8601C206.624 86.3336 206.753 86.8934 206.946 87.2378C207.591 88.3572 209.89 88.3572 212.017 88.0343Z" fill="#FF8F6D"/>
<path d="M99.775 50.0392C97.9487 49.1781 95.9934 48.6615 93.9738 48.5323C91.6318 48.3816 89.2469 48.7476 87.0338 49.6087L86.7115 48.8122C89.032 47.908 91.5459 47.5205 94.0167 47.6712C96.1438 47.8219 98.185 48.3386 100.119 49.2642L99.775 50.0392Z" fill="black"/>
<path d="M86.9909 53.0099L86.3893 52.3856C86.5612 52.2134 90.6435 48.4461 99.3453 51.4599L99.066 52.2779C90.8584 49.4364 87.0339 52.9883 86.9909 53.0099Z" fill="black"/>
<path d="M218.721 96.9465C216.615 95.784 214.746 94.3202 213.177 92.555C212.404 91.6724 211.695 90.7252 211.072 89.7134L211.802 89.2614C212.404 90.2301 213.07 91.1342 213.822 91.9738C215.326 93.6744 217.109 95.0952 219.15 96.1931L218.721 96.9465Z" fill="black"/>
<defs>
<linearGradient id="paint0_linear_492_85" x1="158.873" y1="94.9473" x2="173.077" y2="94.9473" gradientUnits="userSpaceOnUse">
<stop offset="0.5605"/>
<stop offset="1" stop-color="#1244EE"/>
</linearGradient>
</defs>
</svg>
